<svg width="60" height="60" viewBox="0 0 60 60" fill="none" xmlns="http://www.w3.org/2000/svg">
<circle cx="30" cy="30" r="29.5" fill="white" stroke="#EFEEF6"/>
<path d="M36.8331 29.5481C36.5501 26.5716 34.1275 24.155 31.1214 23.8514C29.5754 23.6953 28.1291 24.0847 26.9503 24.8454C25.7714 24.0847 24.3242 23.6953 22.7791 23.8514C19.7728 24.155 17.3504 26.5716 17.0674 29.5481C16.8626 31.6996 17.7458 33.655 19.2356 34.9417C19.6921 35.336 19.9542 35.8985 19.9536 36.4976C19.9536 36.501 19.9536 36.5043 19.9536 36.5077C19.9536 39.9426 20.9624 43.007 22.5416 45.0158C23.218 45.8766 24.6184 45.3849 24.6184 44.295C24.6184 42.5283 24.6184 40.2549 24.6184 38.8932C24.6184 37.6646 25.5558 36.5923 26.7954 36.5125C28.1538 36.4253 29.2832 37.4896 29.2832 38.8148V44.293C29.2832 45.3829 30.6838 45.8759 31.3602 45.0158C32.9394 43.007 33.9483 39.9426 33.9483 36.5077C33.9483 36.5043 33.9483 36.501 33.9483 36.4976C33.9474 35.8985 34.2097 35.336 34.666 34.9417C36.1538 33.655 37.0379 31.7003 36.8331 29.5481Z" fill="white"/>
<path d="M33.4103 36.5079V36.4979C33.4094 35.7337 33.7449 35.0214 34.317 34.5271C35.6799 33.3482 36.4845 31.5641 36.2977 29.6006C36.0402 26.8921 33.8274 24.6727 31.0679 24.3941C29.6453 24.2503 28.3192 24.6086 27.2391 25.3056C27.0628 25.4193 26.8375 25.4192 26.6613 25.3056C25.5812 24.6086 24.254 24.2503 22.8322 24.3941C20.1157 24.6684 17.9294 26.8233 17.6162 29.474L17.6026 29.6006C17.4158 31.5637 18.2197 33.3484 19.5844 34.5271C20.1569 35.0216 20.492 35.7339 20.4913 36.4979V36.5079C20.4913 39.8445 21.4729 42.7821 22.962 44.6764H22.9623C23.3283 45.1421 24.0805 44.8584 24.0805 44.2952V38.8934C24.0805 37.3904 25.2257 36.0676 26.7613 35.9689V35.9687C28.418 35.8623 29.8209 37.1638 29.8209 38.8151V44.2933C29.8209 44.8579 30.5745 45.1404 30.9396 44.6762C32.4287 42.7818 33.4103 39.8444 33.4103 36.5079ZM34.4861 36.5079C34.4861 40.0411 33.45 43.2324 31.7808 45.3557H31.7806C30.7928 46.6117 28.7452 45.9084 28.7452 44.2933V38.8151C28.7452 37.8472 27.9419 37.0405 26.928 37.053L26.8293 37.0567C25.8858 37.1174 25.156 37.9393 25.156 38.8934V44.2952C25.156 45.8866 23.1712 46.5893 22.1678 45.4131L22.1208 45.3557C20.4516 43.2324 19.4156 40.0411 19.4156 36.5079V36.4973C19.4161 36.0632 19.2269 35.6508 18.8865 35.3568C17.2717 33.962 16.3091 31.8359 16.5318 29.496C16.8403 26.2516 19.4727 23.6378 22.7256 23.3093L22.8816 23.2951C24.3685 23.177 25.7695 23.5263 26.9501 24.2094C28.1717 23.5025 29.629 23.1531 31.1747 23.3093C34.4274 23.6378 37.0598 26.2516 37.3683 29.496C37.591 31.8368 36.6274 33.962 35.0149 35.3566V35.3568C34.6745 35.6509 34.4854 36.0632 34.4861 36.4971V36.5079Z" fill="#181443"/>
<path d="M23.4514 23.2734C25.7973 23.2734 27.8761 24.4265 29.1357 26.1954C29.3095 26.4395 29.2551 26.7802 29.0142 26.9564C28.7734 27.1325 28.4374 27.0774 28.2635 26.8333C27.2014 25.3418 25.4437 24.3637 23.4514 24.3637C23.1544 24.3637 22.9136 24.1196 22.9136 23.8186C22.9136 23.5175 23.1544 23.2734 23.4514 23.2734Z" fill="#181443"/>
<path d="M18.832 30.1632C18.832 29.5339 18.9602 28.9331 19.1923 28.3861C19.3096 28.1096 19.6261 27.9819 19.899 28.1008C20.1718 28.2198 20.2978 28.5403 20.1805 28.8169C20.0049 29.2307 19.9078 29.6852 19.9078 30.1632C19.9078 30.4643 19.667 30.7083 19.3699 30.7083C19.0729 30.7083 18.832 30.4643 18.832 30.1632ZM23.4517 25.5801C23.7487 25.5801 23.9895 25.8242 23.9895 26.1252C23.9895 26.4262 23.7487 26.6703 23.4517 26.6703C22.9737 26.6703 22.5193 26.7633 22.105 26.9312C21.8292 27.043 21.5161 26.907 21.4057 26.6275C21.2955 26.348 21.4297 26.0309 21.7055 25.9191C22.2451 25.7003 22.835 25.5801 23.4517 25.5801Z" fill="#744394"/>
<path d="M26.4121 21.4997V19.1818C26.4121 18.8808 26.6529 18.6367 26.95 18.6367C27.247 18.6367 27.4879 18.8808 27.4879 19.1818V21.4997C27.4878 21.8008 27.247 22.0448 26.95 22.0448C26.6529 22.0448 26.4121 21.8008 26.4121 21.4997Z" fill="#181443"/>
<path d="M35.3371 18.409L28.4746 16.8633V18.409L35.3371 21.4997V18.409Z" fill="white"/>
<path d="M28.1378 16.4372C28.265 16.3337 28.4319 16.2945 28.5911 16.3304L35.4536 17.8759C35.6997 17.9314 35.8748 18.1528 35.8748 18.4082V21.4989C35.8748 21.6834 35.7826 21.8554 35.63 21.9559C35.4774 22.0565 35.2849 22.0719 35.1185 21.997L28.256 18.9064C28.0618 18.8189 27.9366 18.6236 27.9365 18.4082V16.8625C27.9365 16.6971 28.0105 16.5406 28.1378 16.4372ZM29.0123 18.0538L34.799 20.66V18.8453L29.0123 17.542V18.0538Z" fill="#181443"/>
<path d="M42.9619 17.6357H35.3369V22.2722H42.9619" fill="#744394"/>
<path d="M42.9622 17.0908C43.2593 17.0908 43.5001 17.3349 43.5001 17.6359C43.5001 17.937 43.2593 18.181 42.9622 18.1811H35.8751V21.7272H42.9622C43.2593 21.7272 43.5001 21.9713 43.5001 22.2724C43.5001 22.5734 43.2593 22.8175 42.9622 22.8175H35.3372C35.0401 22.8175 34.7993 22.5734 34.7993 22.2724V17.6359C34.7993 17.3349 35.0401 17.0908 35.3372 17.0908H42.9622Z" fill="#744394"/>
<path d="M28.2075 14.5449H25.6917C25.5443 14.5449 25.4248 14.666 25.4248 14.8154V19.1813H28.4744V14.8154C28.4744 14.666 28.3549 14.5449 28.2075 14.5449Z" fill="#744394"/>
<path d="M25.9629 18.6364H27.9368V15.0902H25.9629V18.6364ZM29.0125 19.1815C29.0125 19.4826 28.7717 19.7266 28.4747 19.7266H25.4251C25.128 19.7266 24.8872 19.4826 24.8872 19.1815V14.8156C24.8872 14.3649 25.2477 14 25.692 14H28.2078C28.652 14 29.0125 14.3649 29.0125 14.8156V19.1815Z" fill="#744394"/>
</svg>
