<svg width="60" height="60" viewBox="0 0 60 60" fill="none" xmlns="http://www.w3.org/2000/svg">
<circle cx="30" cy="30" r="29.5" fill="white" stroke="#EFEEF6"/>
<path d="M41.4268 26.557C41.0993 23.2053 38.2986 20.4835 34.823 20.1412C34.8203 20.1407 34.8165 20.1407 34.8138 20.1401C34.3843 20.0986 34.0132 20.4501 34.0387 20.8714C34.0693 21.3699 33.9985 21.896 33.7785 22.4441C33.178 23.9418 31.7298 25.0097 30.083 25.0414C27.8115 25.0858 25.955 23.2999 25.955 21.0904C25.955 21.0154 25.9575 20.9417 25.9622 20.8679C25.9882 20.4484 25.6148 20.0986 25.1863 20.1401C25.1836 20.1407 25.1806 20.1407 25.1771 20.1412C21.7015 20.4835 18.9003 23.2053 18.5734 26.557C18.3369 28.9804 19.358 31.1823 21.0803 32.631C21.6078 33.0747 21.911 33.7082 21.9103 34.3829C21.9103 34.3871 21.9103 34.3905 21.9103 34.3946C21.9103 38.2631 23.0772 41.7145 24.9028 43.9771C25.6849 44.9463 27.3035 44.3925 27.3035 43.1649C27.3035 41.175 27.3035 38.6152 27.3035 37.0811C27.3035 35.6969 28.3871 34.4896 29.8204 34.4002C31.3913 34.3023 32.6967 35.501 32.6967 36.9929V43.1628C32.6967 44.3903 34.3157 44.9458 35.0973 43.9763C36.9229 41.714 38.0898 38.2626 38.0898 34.3939C38.0898 34.39 38.0898 34.3863 38.0898 34.3824C38.0891 33.7075 38.3924 33.0742 38.9198 32.6305C40.6417 31.1823 41.6632 28.9804 41.4268 26.557Z" fill="white"/>
<path d="M37.5503 34.3946V34.3832C37.5496 33.5509 37.9245 32.7732 38.5679 32.232C40.1646 30.8889 41.1085 28.8514 40.8896 26.6079C40.5871 23.5116 37.9931 20.984 34.7687 20.6665C34.7681 20.6664 34.7676 20.6663 34.767 20.6662C34.7663 20.6662 34.7654 20.6661 34.7646 20.666C34.7628 20.6658 34.7602 20.6654 34.7573 20.665C34.6626 20.658 34.5713 20.741 34.577 20.8406L34.5824 20.9482C34.6015 21.4879 34.5145 22.054 34.2806 22.6369C33.6075 24.3157 31.9769 25.5327 30.0937 25.5691C27.5196 25.6194 25.4154 23.5954 25.4154 21.0912C25.4154 21.0047 25.4183 20.9199 25.4237 20.8356C25.4286 20.7423 25.3394 20.6565 25.241 20.665C25.2418 20.6649 25.2427 20.6649 25.2437 20.6648C25.2434 20.6648 25.243 20.6648 25.2427 20.6648C25.2421 20.6649 25.2414 20.665 25.2408 20.665H25.2403C25.2366 20.6654 25.2341 20.6659 25.2335 20.666C25.2346 20.6659 25.2363 20.6657 25.2381 20.6655C25.2358 20.6658 25.2335 20.6662 25.2313 20.6665C22.0068 20.984 19.4124 23.5117 19.1103 26.6079C18.8915 28.8515 19.8349 30.8889 21.4321 32.2324C22.0755 32.7737 22.4504 33.5516 22.4497 34.3837V34.3953C22.4497 38.17 23.5901 41.4996 25.3265 43.6516H25.3262C25.7901 44.2265 26.7639 43.8952 26.7639 43.1657V37.082C26.7639 35.4373 28.0509 33.9832 29.7859 33.875C31.662 33.758 33.236 35.192 33.236 36.9937V43.1636C33.2361 43.8949 34.2112 44.2243 34.6735 43.6509L34.8347 43.4455C36.4271 41.3599 37.4806 38.2594 37.5469 34.7473L37.5503 34.3946ZM34.7607 20.6653C34.7599 20.6652 34.759 20.6651 34.7582 20.665L34.7587 20.6653C34.7613 20.6656 34.7636 20.6656 34.7653 20.6657C34.7637 20.6656 34.7622 20.6652 34.7607 20.665V20.6653ZM25.2388 20.6655H25.2381C25.239 20.6654 25.2399 20.6651 25.2408 20.665H25.241C25.2402 20.6651 25.2395 20.6654 25.2388 20.6655ZM25.0712 19.6259C25.0773 19.6247 25.0835 19.6244 25.0895 19.6233V19.6228C25.0839 19.6238 25.0777 19.6245 25.0712 19.6259ZM25.1263 19.6171C25.1249 19.6173 25.1229 19.6176 25.1207 19.6178C25.1214 19.6178 25.1221 19.6177 25.1229 19.6176V19.6181C25.1252 19.6178 25.1274 19.6174 25.1297 19.6171C25.129 19.6172 25.1277 19.617 25.1263 19.6171ZM26.4943 21.0912C26.4943 23.006 28.1032 24.5537 30.0721 24.5152H30.0723C31.4826 24.4881 32.7483 23.5692 33.2762 22.2526V22.2524C33.4665 21.7782 33.5262 21.3287 33.5 20.9037V20.9032C33.4567 20.1849 34.064 19.5815 34.7955 19.6114L34.8669 19.6164L34.8686 19.6169C34.8692 19.6169 34.87 19.6168 34.871 19.6169C34.8734 19.6171 34.8777 19.6175 34.8827 19.6181C34.8845 19.6183 34.8865 19.6188 34.8888 19.619C38.6101 19.9911 41.6117 22.9045 41.9637 26.5077L41.9746 26.6296C42.1832 29.1846 41.0898 31.5015 39.2717 33.0307C38.8603 33.3768 38.6287 33.8654 38.6292 34.3827V34.3946C38.6292 38.3571 37.4355 41.9302 35.5208 44.3031L35.521 44.3033C34.4201 45.6688 32.1571 44.8873 32.1571 43.1636V36.9937C32.1571 35.8117 31.1204 34.848 29.8546 34.9269C28.723 34.9976 27.8429 35.9582 27.8429 37.082V43.1657C27.8429 44.8913 25.5793 45.6677 24.4789 44.304C22.6241 42.0051 21.446 38.5799 21.3741 34.7658L21.3707 34.3953V34.3832C21.3713 33.8661 21.1396 33.3772 20.7282 33.0312C18.8808 31.4772 17.7823 29.1108 18.0363 26.5077C18.3881 22.9021 21.3938 19.987 25.1185 19.6181C25.1191 19.618 25.1197 19.6179 25.1202 19.6178C25.1237 19.6175 25.1266 19.617 25.1282 19.6169C25.1289 19.6168 25.1296 19.6169 25.1299 19.6169C25.131 19.6168 25.1321 19.6165 25.1331 19.6164C25.8906 19.5431 26.5467 20.1559 26.5006 20.9006V20.9018C26.4966 20.9651 26.4943 21.0278 26.4943 21.0912Z" fill="#181443"/>
<path d="M20.6968 26.724C20.6968 26.0315 20.8409 25.3701 21.102 24.7674C21.2182 24.4995 21.5347 24.3742 21.8091 24.4876C22.0834 24.6011 22.2116 24.9105 22.0955 25.1786C21.8896 25.6538 21.7757 26.1756 21.7757 26.724C21.7756 27.0151 21.5342 27.2511 21.2362 27.2511C20.9383 27.2511 20.6968 27.0151 20.6968 26.724ZM25.955 21.6494C26.253 21.6494 26.4945 21.8854 26.4945 22.1765C26.4945 22.4675 26.253 22.7035 25.955 22.7035C25.3899 22.7035 24.8523 22.8112 24.3622 23.0057C24.0862 23.1152 23.7715 22.9855 23.6593 22.7159C23.5472 22.4462 23.6802 22.1387 23.9562 22.0292C24.5733 21.7842 25.2486 21.6494 25.955 21.6494Z" fill="#744394"/>
<path d="M32.939 15.5366C32.7018 15.5706 32.4684 15.615 32.2389 15.6703C30.763 16.0241 29.2377 16.0241 27.7618 15.6703C27.5328 15.6155 27.2999 15.5706 27.0635 15.5372C26.4707 15.4525 25.9474 15.9037 25.9557 16.4892C25.9614 16.907 26.0412 17.3427 26.2215 17.7933C26.8221 19.2911 28.2703 20.359 29.9171 20.3907C32.1888 20.435 34.0451 18.6491 34.0451 16.4396C34.0451 16.4362 34.0451 16.4327 34.0451 16.4292C34.0433 15.868 33.5071 15.4553 32.939 15.5366Z" fill="#744394"/>
<path d="M33.5055 16.4313L33.5028 16.392C33.4778 16.1966 33.274 16.0216 33.0169 16.0584C32.7962 16.09 32.5799 16.1313 32.3681 16.1824L32.3673 16.1826C30.807 16.5567 29.1933 16.5567 27.633 16.1826V16.1824C27.42 16.1315 27.2042 16.0902 26.9861 16.0594L26.9851 16.0591C26.7398 16.0241 26.5204 16.1951 26.497 16.4339L26.4948 16.4824V16.4827C26.4997 16.838 26.5673 17.2108 26.7235 17.6015C27.2514 18.9181 28.5172 19.8369 29.9274 19.8641H29.9277C31.8968 19.9025 33.5055 18.3549 33.5055 16.4401V16.4313ZM34.5844 16.4401C34.5844 18.9442 32.4804 20.9685 29.906 20.9182C28.0229 20.8818 26.3923 19.6649 25.7191 17.986L25.7189 17.9858C25.5147 17.4753 25.4228 16.9769 25.4162 16.4967C25.4035 15.5898 26.2169 14.8849 27.1403 15.0162L27.1405 15.016C27.3314 15.043 27.5198 15.0769 27.7053 15.1169L27.8899 15.1588L27.8901 15.159C29.2813 15.4925 30.7182 15.4926 32.1094 15.1592C32.3564 15.0997 32.6069 15.0519 32.8605 15.0155H32.8608C33.7227 14.8923 34.5815 15.5162 34.5844 16.4282V16.4401Z" fill="#744394"/>
</svg>
