<svg width="28" height="32" viewBox="0 0 28 32" fill="none" xmlns="http://www.w3.org/2000/svg">
<path d="M20.8331 15.5481C20.5501 12.5716 18.1275 10.155 15.1214 9.85144C13.5754 9.69525 12.1291 10.0847 10.9503 10.8454C9.77136 10.0847 8.32421 9.69525 6.77909 9.85144C3.77275 10.155 1.35037 12.5716 1.0674 15.5481C0.862645 17.6996 1.74583 19.655 3.23559 20.9417C3.69212 21.336 3.95422 21.8985 3.95356 22.4976C3.95356 22.501 3.95356 22.5043 3.95356 22.5077C3.95356 25.9426 4.96241 29.007 6.54159 31.0158C7.21804 31.8766 8.61839 31.3849 8.61839 30.295C8.61839 28.5283 8.61839 26.2549 8.61839 24.8932C8.61839 23.6646 9.55584 22.5923 10.7954 22.5125C12.1538 22.4253 13.2832 23.4896 13.2832 24.8148V30.293C13.2832 31.3829 14.6838 31.8759 15.3602 31.0158C16.9394 29.007 17.9483 25.9426 17.9483 22.5077C17.9483 22.5043 17.9483 22.501 17.9483 22.4976C17.9474 21.8985 18.2097 21.336 18.666 20.9417C20.1538 19.655 21.0379 17.7003 20.8331 15.5481Z" fill="white"/>
<path d="M17.4103 22.5079V22.4979C17.4094 21.7337 17.7449 21.0214 18.317 20.5271C19.6799 19.3482 20.4845 17.5641 20.2977 15.6006C20.0402 12.8921 17.8274 10.6727 15.0679 10.3941C13.6453 10.2503 12.3192 10.6086 11.2391 11.3056C11.0628 11.4193 10.8375 11.4192 10.6613 11.3056C9.58116 10.6086 8.25395 10.2503 6.83225 10.3941C4.11566 10.6684 1.92942 12.8233 1.61616 15.474L1.60264 15.6006C1.41582 17.5637 2.21974 19.3484 3.58442 20.5271C4.15691 21.0216 4.49199 21.7339 4.49132 22.4979V22.5079C4.49132 25.8445 5.47287 28.7821 6.96205 30.6764H6.96226C7.32829 31.1421 8.08049 30.8584 8.08049 30.2952V24.8934C8.08049 23.3904 9.22565 22.0676 10.7613 21.9689V21.9687C12.418 21.8623 13.8209 23.1638 13.8209 24.8151V30.2933C13.8209 30.8579 14.5745 31.1404 14.9396 30.6762C16.4287 28.7818 17.4103 25.8444 17.4103 22.5079ZM18.4861 22.5079C18.4861 26.0411 17.45 29.2324 15.7808 31.3557H15.7806C14.7928 32.6117 12.7452 31.9084 12.7452 30.2933V24.8151C12.7452 23.8472 11.9419 23.0405 10.928 23.053L10.8293 23.0567C9.88583 23.1174 9.15602 23.9393 9.15602 24.8934V30.2952C9.15602 31.8866 7.17116 32.5893 6.16779 31.4131L6.12081 31.3557C4.45165 29.2324 3.41558 26.0411 3.41557 22.5079V22.4973C3.41605 22.0632 3.22691 21.6508 2.8865 21.3568C1.27169 19.962 0.309149 17.8359 0.531836 15.496C0.840307 12.2516 3.47269 9.63775 6.72562 9.30926L6.88159 9.29512C8.36853 9.177 9.76953 9.52633 10.9501 10.2094C12.1717 9.50246 13.629 9.15309 15.1747 9.30926C18.4274 9.6378 21.0598 12.2516 21.3683 15.496C21.591 17.8368 20.6274 19.962 19.0149 21.3566V21.3568C18.6745 21.6509 18.4854 22.0632 18.4861 22.4971V22.5079Z" fill="#181443"/>
<path d="M7.45145 9.27344C9.79732 9.27344 11.8761 10.4265 13.1357 12.1954C13.3095 12.4395 13.2551 12.7802 13.0142 12.9564C12.7734 13.1325 12.4374 13.0774 12.2635 12.8333C11.2014 11.3418 9.4437 10.3637 7.45145 10.3637C7.1544 10.3637 6.91357 10.1196 6.91357 9.81855C6.91357 9.5175 7.1544 9.27344 7.45145 9.27344Z" fill="#181443"/>
<path d="M2.83203 16.1632C2.83204 15.5339 2.96017 14.9331 3.19226 14.3861C3.30961 14.1096 3.6261 13.9819 3.89898 14.1008C4.17178 14.2198 4.2978 14.5403 4.18046 14.8169C4.00486 15.2307 3.90778 15.6852 3.90777 16.1632C3.90777 16.4643 3.66695 16.7083 3.3699 16.7083C3.07285 16.7083 2.83203 16.4643 2.83203 16.1632ZM7.45168 11.5801C7.74871 11.5801 7.98955 11.8242 7.98955 12.1252C7.98955 12.4262 7.74871 12.6703 7.45168 12.6703C6.9737 12.6703 6.51926 12.7633 6.10496 12.9312C5.82915 13.043 5.51606 12.907 5.40575 12.6275C5.29547 12.348 5.42968 12.0309 5.70547 11.9191C6.24509 11.7003 6.83498 11.5801 7.45168 11.5801Z" fill="#744394"/>
<path d="M10.4121 7.49972V5.18183C10.4121 4.88078 10.6529 4.63672 10.95 4.63672C11.247 4.63672 11.4879 4.88078 11.4879 5.18183V7.49972C11.4878 7.80076 11.247 8.04483 10.95 8.04483C10.6529 8.04483 10.4121 7.80076 10.4121 7.49972Z" fill="#181443"/>
<path d="M19.3371 4.40896L12.4746 2.86328V4.40896L19.3371 7.49967V4.40896Z" fill="white"/>
<path d="M12.1378 2.43715C12.265 2.3337 12.4319 2.29452 12.5911 2.33039L19.4536 3.87594C19.6997 3.93139 19.8748 4.15277 19.8748 4.40822V7.49888C19.8748 7.68337 19.7826 7.85539 19.63 7.95593C19.4774 8.05646 19.2849 8.07191 19.1185 7.99703L12.256 4.90637C12.0618 4.8189 11.9366 4.62362 11.9365 4.40822V2.86246C11.9365 2.69712 12.0105 2.54061 12.1378 2.43715ZM13.0123 4.0538L18.799 6.66001V4.84527L13.0123 3.54195V4.0538Z" fill="#181443"/>
<path d="M26.9619 3.63574H19.3369V8.27215H26.9619" fill="#744394"/>
<path d="M26.9622 3.09082C27.2593 3.09083 27.5001 3.33489 27.5001 3.63594C27.5001 3.93698 27.2593 4.18105 26.9622 4.18105H19.8751V7.72724H26.9622C27.2593 7.72724 27.5001 7.97131 27.5001 8.27235C27.5001 8.57339 27.2593 8.81746 26.9622 8.81747H19.3372C19.0401 8.81747 18.7993 8.5734 18.7993 8.27235V3.63594C18.7993 3.33489 19.0401 3.09082 19.3372 3.09082H26.9622Z" fill="#744394"/>
<path d="M12.2075 0.544922H9.69174C9.54432 0.544922 9.4248 0.665957 9.4248 0.815382V5.18133H12.4744V0.815382C12.4744 0.665957 12.3549 0.544922 12.2075 0.544922Z" fill="#744394"/>
<path d="M9.96295 4.63642H11.9368V1.09023H9.96295V4.63642ZM13.0125 5.18153C13.0125 5.48258 12.7717 5.72665 12.4747 5.72665H9.42508C9.12803 5.72665 8.88721 5.48258 8.88721 5.18153V0.815608C8.88721 0.364942 9.24773 1.83544e-05 9.69198 0H12.2078C12.652 1.83552e-06 13.0125 0.364932 13.0125 0.815608V5.18153Z" fill="#744394"/>
</svg>
