<svg width="60" height="60" viewBox="0 0 60 60" fill="none" xmlns="http://www.w3.org/2000/svg">
<circle cx="30" cy="30" r="29.5" fill="white" stroke="#EFEEF6"/>
<path d="M26.7066 19.3203C28.8962 19.3203 30.8359 20.4004 32.0111 22.057C32.1563 22.2618 32.1109 22.5476 31.9096 22.6953C31.7084 22.843 31.4276 22.7968 31.2824 22.5921C30.2722 21.168 28.6007 20.2344 26.7066 20.2344C26.4584 20.2344 26.2573 20.0298 26.2573 19.7773C26.2573 19.5249 26.4584 19.3203 26.7066 19.3203Z" fill="#181443"/>
<path d="M39.3031 25.1922C39.0368 22.3798 36.7566 20.0964 33.9266 19.8095C32.4715 19.6619 31.1098 20.0299 30.0002 20.7487C28.8903 20.0299 27.5282 19.6619 26.0737 19.8095C23.2438 20.0964 20.9633 22.3798 20.697 25.1922C20.5043 27.2252 21.3358 29.0729 22.7381 30.2887C23.1677 30.6612 23.4145 31.1927 23.4139 31.7587C23.4139 31.7619 23.4139 31.7651 23.4139 31.7683C23.4139 35.014 24.3635 37.9095 25.85 39.8077C26.4868 40.6209 27.8052 40.1564 27.8052 39.1266C27.8052 37.4571 27.8052 35.3091 27.8052 34.0224C27.8052 32.8616 28.6875 31.8482 29.8544 31.7728C31.1331 31.6905 32.1956 32.696 32.1956 33.9482V39.1247C32.1956 40.1544 33.5139 40.6203 34.1508 39.8077C35.6373 37.9095 36.5869 35.014 36.5869 31.7683C36.5869 31.7651 36.5869 31.7619 36.5869 31.7587C36.5863 31.1927 36.833 30.6612 37.2627 30.2887C38.6638 29.0729 39.4954 27.2252 39.3031 25.1922Z" fill="white"/>
<path d="M36.1373 31.7685V31.7587C36.1367 31.0545 36.4445 30.3973 36.971 29.9408C38.2271 28.8507 38.9846 27.217 38.8695 25.4114L38.8556 25.2361C38.6106 22.6485 36.5058 20.5304 33.8819 20.2644C32.5299 20.1273 31.2683 20.469 30.2412 21.1344C30.094 21.2297 29.9058 21.2297 29.7586 21.1344C28.7313 20.469 27.4695 20.1273 26.1181 20.2644C23.4942 20.5304 21.389 22.6485 21.144 25.2361C20.9663 27.111 21.7314 28.8156 23.0292 29.9408C23.5557 30.3973 23.8637 31.0545 23.8631 31.7587V31.7685C23.8631 34.9317 24.7899 37.7207 26.2012 39.5229C26.5787 40.005 27.3556 39.7146 27.3556 39.1267V34.0224C27.3557 32.6315 28.4115 31.4081 29.8257 31.3167L29.8973 31.3129C31.3939 31.256 32.6448 32.4465 32.6448 33.9483V39.1248C32.6448 39.714 33.4223 40.0034 33.799 39.5229C35.2104 37.7207 36.1373 34.9317 36.1373 31.7685ZM37.0361 31.7685C37.036 34.9926 36.1234 37.9105 34.6466 39.9027L34.502 40.0927C33.605 41.2373 31.7461 40.595 31.7461 39.1248V33.9483C31.7461 33 30.9632 32.2133 29.9783 32.2253L29.8826 32.2291C28.9631 32.2885 28.2544 33.0917 28.2543 34.0224V39.1267C28.2543 40.5982 26.3944 41.237 25.4983 40.0927C23.9366 38.0986 22.9644 35.0966 22.9644 31.7685V31.7583C22.9648 31.3307 22.779 30.9252 22.4464 30.6368C20.9396 29.3304 20.0417 27.3395 20.2494 25.1485C20.537 22.1113 22.993 19.6625 26.0289 19.3548L26.1746 19.3416C27.5744 19.23 28.8923 19.5636 29.9998 20.2143C31.1455 19.541 32.5162 19.2072 33.9709 19.3548C37.0069 19.6625 39.4627 22.1113 39.7502 25.1485L39.759 25.2511C39.9291 27.4015 39.0359 29.3506 37.5541 30.6365L37.5538 30.6368C37.2212 30.9252 37.0356 31.3307 37.0361 31.7583V31.7685Z" fill="#181443"/>
<path d="M22.415 25.7724C22.415 25.1859 22.534 24.626 22.7495 24.1162C22.8476 23.8843 23.1118 23.7772 23.3397 23.8769C23.5677 23.9766 23.673 24.2454 23.575 24.4773C23.4067 24.8755 23.3136 25.3127 23.3135 25.7724C23.3135 26.0249 23.1125 26.2297 22.8643 26.2297C22.6161 26.2297 22.415 26.0249 22.415 25.7724ZM26.7067 21.5C26.9548 21.5 27.1561 21.7046 27.1561 21.957C27.1561 22.2095 26.9548 22.414 26.7067 22.414C26.2494 22.4141 25.8145 22.5035 25.4178 22.6648C25.1874 22.7586 24.9257 22.6445 24.8336 22.4101C24.7415 22.1757 24.8536 21.9097 25.084 21.8159C25.5853 21.612 26.1335 21.5 26.7067 21.5Z" fill="#744394"/>
<path d="M29.5493 15.3965V13.9365C29.5493 13.6841 29.7504 13.4795 29.9986 13.4795C30.2467 13.4795 30.4478 13.6841 30.4478 13.9365V15.3965C30.4478 15.6489 30.2467 15.8535 29.9986 15.8535C29.7504 15.8535 29.5493 15.6489 29.5493 15.3965Z" fill="#744394"/>
<path d="M29.5498 46.0632V44.6035C29.5498 44.351 29.7509 44.1465 29.9991 44.1465C30.2472 44.1465 30.4483 44.351 30.4483 44.6035V46.0632C30.4483 46.3157 30.2472 46.5205 29.9991 46.5205C29.7509 46.5205 29.5498 46.3157 29.5498 46.0632Z" fill="#744394"/>
<path d="M24.4451 14.476C24.6782 14.3896 24.9362 14.5118 25.0212 14.749L25.5124 16.1215C25.5972 16.3587 25.4771 16.621 25.2439 16.7074C25.0108 16.7938 24.7528 16.6715 24.6679 16.4343L24.1767 15.062C24.0918 14.8248 24.2119 14.5624 24.4451 14.476Z" fill="#744394"/>
<path d="M34.7551 43.2933C34.9883 43.207 35.2463 43.3292 35.3312 43.5664L35.8224 44.9389C35.9073 45.1761 35.7872 45.4384 35.554 45.5248C35.3208 45.6111 35.0628 45.4889 34.9779 45.2517L34.4867 43.8794C34.4018 43.6422 34.522 43.3798 34.7551 43.2933Z" fill="#744394"/>
<path d="M19.5609 17.3442C19.7511 17.182 20.0346 17.2072 20.1941 17.4006L21.1166 18.5195C21.2761 18.7129 21.2512 19.0011 21.0611 19.1634C20.871 19.3256 20.5876 19.3004 20.4282 19.107L19.5055 17.9884C19.346 17.7949 19.3708 17.5065 19.5609 17.3442Z" fill="#744394"/>
<path d="M38.9384 40.8364C39.1285 40.6742 39.412 40.6994 39.5716 40.8928L40.494 42.0114C40.6535 42.2048 40.6289 42.4933 40.4388 42.6556C40.2486 42.8178 39.9651 42.7926 39.8056 42.5992L38.8829 41.4805C38.7234 41.2871 38.7483 40.9987 38.9384 40.8364Z" fill="#744394"/>
<path d="M15.9358 21.7394C16.0598 21.5207 16.3346 21.4458 16.5495 21.5721L17.7931 22.3023C18.008 22.4286 18.0816 22.7081 17.9576 22.9267C17.8335 23.1453 17.5586 23.2202 17.3437 23.094L16.1002 22.3637C15.8853 22.2375 15.8117 21.958 15.9358 21.7394Z" fill="#744394"/>
<path d="M42.0422 37.0724C42.1663 36.8537 42.441 36.7788 42.6559 36.9051L43.8996 37.6353C44.1144 37.7616 44.188 38.0411 44.064 38.2597C43.94 38.4783 43.665 38.5532 43.4501 38.427L42.2067 37.6967C41.9918 37.5705 41.9181 37.291 42.0422 37.0724Z" fill="#744394"/>
<path d="M14.0069 27.1319C14.0498 26.8833 14.2827 26.7172 14.5271 26.7609L15.9409 27.0137C16.1854 27.0575 16.3487 27.2945 16.3057 27.5432C16.2627 27.7918 16.0298 27.9579 15.7855 27.9143L14.3716 27.6612C14.1272 27.6175 13.9639 27.3806 14.0069 27.1319Z" fill="#744394"/>
<path d="M43.6944 32.457C43.7375 32.2084 43.9705 32.0423 44.2148 32.0861L45.6285 32.3396C45.8729 32.3834 46.0361 32.6206 45.993 32.8692C45.9499 33.1179 45.7168 33.284 45.4724 33.2401L44.0589 32.9864C43.8146 32.9426 43.6513 32.7056 43.6944 32.457Z" fill="#744394"/>
<path d="M15.7853 32.0861C16.0297 32.0423 16.2627 32.2084 16.3057 32.457C16.3488 32.7056 16.1856 32.9426 15.9412 32.9864L14.5273 33.2401C14.283 33.2839 14.05 33.1178 14.0069 32.8692C13.9638 32.6206 14.1271 32.3834 14.3715 32.3396L15.7853 32.0861Z" fill="#744394"/>
<path d="M45.4726 26.7609C45.7169 26.7172 45.95 26.8832 45.993 27.1318C46.036 27.3804 45.8727 27.6175 45.6282 27.6612L44.2148 27.9143C43.9704 27.958 43.7374 27.7918 43.6944 27.5432C43.6514 27.2946 43.8146 27.0575 44.0589 27.0138L45.4726 26.7609Z" fill="#744394"/>
<path d="M17.3432 36.9051C17.5581 36.7789 17.8331 36.8537 17.9571 37.0724C18.0812 37.291 18.0074 37.5705 17.7924 37.6967L16.549 38.427C16.3341 38.5532 16.0593 38.4781 15.9353 38.2595C15.8112 38.0408 15.8848 37.7613 16.0997 37.6351L17.3432 36.9051Z" fill="#744394"/>
<path d="M43.4496 21.5721C43.6645 21.4458 43.9395 21.5207 44.0636 21.7394C44.1876 21.958 44.1139 22.2375 43.8991 22.3637L42.6554 23.094C42.4405 23.2202 42.1658 23.1453 42.0417 22.9267C41.9176 22.708 41.9913 22.4286 42.2062 22.3023L43.4496 21.5721Z" fill="#744394"/>
<path d="M20.4281 40.8918C20.5876 40.6984 20.871 40.6732 21.0611 40.8354C21.2512 40.9976 21.2762 41.2861 21.1167 41.4795L20.1941 42.5984C20.0346 42.7917 19.7511 42.817 19.5609 42.6547C19.3708 42.4925 19.346 42.204 19.5055 42.0106L20.4281 40.8918Z" fill="#744394"/>
<path d="M39.8058 17.4006C39.9653 17.2072 40.2489 17.182 40.439 17.3442C40.6291 17.5065 40.6537 17.795 40.4942 17.9884L39.5716 19.107C39.412 19.3004 39.1285 19.3257 38.9384 19.1634C38.7483 19.0011 38.7234 18.7127 38.8829 18.5193L39.8058 17.4006Z" fill="#744394"/>
<path d="M24.6681 43.5666C24.753 43.3293 25.011 43.207 25.2442 43.2933C25.4773 43.3797 25.5975 43.642 25.5126 43.8792L25.0216 45.2515C24.9367 45.4887 24.6789 45.611 24.4457 45.5247C24.2125 45.4384 24.0922 45.1759 24.1771 44.9387L24.6681 43.5666Z" fill="#744394"/>
<path d="M34.9786 14.7492C35.0635 14.512 35.3215 14.3896 35.5547 14.4759C35.7879 14.5623 35.908 14.8246 35.8231 15.0618L35.3322 16.4341C35.2473 16.6713 34.9895 16.7937 34.7563 16.7074C34.5231 16.621 34.4028 16.3587 34.4877 16.1215L34.9786 14.7492Z" fill="#744394"/>
</svg>
