<svg width="32" height="34" viewBox="0 0 32 34" fill="none" xmlns="http://www.w3.org/2000/svg">
<path d="M12.7066 6.32031C14.8962 6.32031 16.8359 7.40044 18.0111 9.05705C18.1563 9.26177 18.1109 9.5476 17.9096 9.69534C17.7084 9.84302 17.4276 9.7968 17.2824 9.59211C16.2722 8.16802 14.6007 7.23436 12.7066 7.23436C12.4584 7.23436 12.2573 7.0298 12.2573 6.77734C12.2573 6.52487 12.4584 6.32031 12.7066 6.32031Z" fill="#181443"/>
<path d="M25.3031 12.1922C25.0368 9.3798 22.7566 7.0964 19.9266 6.80953C18.4715 6.66195 17.1098 7.02995 16.0002 7.74871C14.8903 7.02995 13.5282 6.66195 12.0737 6.80953C9.24377 7.0964 6.96328 9.3798 6.69702 12.1922C6.5043 14.2252 7.33575 16.0729 8.73806 17.2887C9.16772 17.6612 9.4145 18.1927 9.41387 18.7587C9.41387 18.7619 9.41387 18.7651 9.41387 18.7683C9.41387 22.014 10.3635 24.9095 11.85 26.8077C12.4868 27.6209 13.8052 27.1564 13.8052 26.1266C13.8052 24.4571 13.8052 22.3091 13.8052 21.0224C13.8052 19.8616 14.6875 18.8482 15.8544 18.7728C17.1331 18.6905 18.1956 19.696 18.1956 20.9482V26.1247C18.1956 27.1544 19.5139 27.6203 20.1508 26.8077C21.6373 24.9095 22.5869 22.014 22.5869 18.7683C22.5869 18.7651 22.5869 18.7619 22.5869 18.7587C22.5863 18.1927 22.833 17.6612 23.2627 17.2887C24.6638 16.0729 25.4954 14.2252 25.3031 12.1922Z" fill="white"/>
<path d="M22.1373 18.7685V18.7587C22.1367 18.0545 22.4445 17.3973 22.971 16.9408C24.2271 15.8507 24.9846 14.217 24.8695 12.4114L24.8556 12.2361C24.6106 9.64848 22.5058 7.53043 19.8819 7.26443C18.5299 7.12731 17.2683 7.46905 16.2412 8.13436C16.094 8.2297 15.9058 8.2297 15.7586 8.13436C14.7313 7.46905 13.4695 7.12732 12.1181 7.26443C9.49418 7.53041 7.38902 9.64848 7.14403 12.2361C6.96629 14.111 7.73143 15.8156 9.02922 16.9408C9.55573 17.3973 9.86368 18.0545 9.86308 18.7587V18.7685C9.8631 21.9317 10.7899 24.7207 12.2012 26.5229C12.5787 27.005 13.3556 26.7146 13.3556 26.1267V21.0224C13.3557 19.6315 14.4115 18.4081 15.8257 18.3167L15.8973 18.3129C17.3939 18.256 18.6448 19.4465 18.6448 20.9483V26.1248C18.6448 26.714 19.4223 27.0034 19.799 26.5229C21.2104 24.7207 22.1373 21.9317 22.1373 18.7685ZM23.0361 18.7685C23.036 21.9926 22.1234 24.9105 20.6466 26.9027L20.502 27.0927C19.605 28.2373 17.7461 27.595 17.7461 26.1248V20.9483C17.7461 20 16.9632 19.2133 15.9783 19.2253L15.8826 19.2291C14.9631 19.2885 14.2544 20.0917 14.2543 21.0224V26.1267C14.2543 27.5982 12.3944 28.237 11.4983 27.0927C9.93658 25.0986 8.96439 22.0966 8.96437 18.7685V18.7583C8.96484 18.3307 8.779 17.9252 8.44638 17.6368C6.93959 16.3304 6.04173 14.3395 6.24941 12.1485C6.53695 9.1113 8.99297 6.66251 12.0289 6.35475L12.1746 6.34164C13.5744 6.23002 14.8923 6.5636 15.9998 7.21427C17.1455 6.54101 18.5162 6.20724 19.9709 6.35475C23.0069 6.6625 25.4627 9.11132 25.7502 12.1485L25.759 12.2511C25.9291 14.4015 25.0359 16.3506 23.5541 17.6365L23.5538 17.6368C23.2212 17.9252 23.0356 18.3307 23.0361 18.7583V18.7685Z" fill="#181443"/>
<path d="M8.41504 12.7724C8.41505 12.1859 8.53403 11.626 8.74952 11.1162C8.84757 10.8843 9.11175 10.7772 9.33973 10.8769C9.56771 10.9766 9.67302 11.2454 9.575 11.4773C9.40668 11.8755 9.31355 12.3127 9.31355 12.7724C9.31355 13.0249 9.11246 13.2297 8.86429 13.2297C8.61612 13.2297 8.41504 13.0249 8.41504 12.7724ZM12.7067 8.5C12.9548 8.5 13.1561 8.70456 13.1561 8.95702C13.1561 9.20949 12.9548 9.41405 12.7067 9.41405C12.2494 9.41405 11.8145 9.50349 11.4178 9.66483C11.1874 9.75857 10.9257 9.64451 10.8336 9.41009C10.7415 9.17571 10.8536 8.90968 11.084 8.81592C11.5853 8.61197 12.1335 8.50001 12.7067 8.5Z" fill="#744394"/>
<path d="M15.5493 2.39645V0.936516C15.5493 0.684052 15.7504 0.479492 15.9986 0.479492C16.2467 0.479492 16.4478 0.684052 16.4478 0.936516V2.39645C16.4478 2.64889 16.2467 2.85348 15.9986 2.85348C15.7504 2.85348 15.5493 2.64889 15.5493 2.39645Z" fill="#744394"/>
<path d="M15.5498 33.0632V31.6035C15.5498 31.351 15.7509 31.1465 15.9991 31.1465C16.2472 31.1465 16.4483 31.351 16.4483 31.6035V33.0632C16.4483 33.3157 16.2472 33.5205 15.9991 33.5205C15.7509 33.5205 15.5498 33.3157 15.5498 33.0632Z" fill="#744394"/>
<path d="M10.4451 1.47596C10.6782 1.38958 10.9362 1.51183 11.0212 1.74901L11.5124 3.12154C11.5972 3.35874 11.4771 3.621 11.2439 3.70739C11.0108 3.79377 10.7528 3.67155 10.6679 3.43434L10.1767 2.06202C10.0918 1.82481 10.2119 1.56237 10.4451 1.47596Z" fill="#744394"/>
<path d="M20.7551 30.2933C20.9883 30.207 21.2463 30.3292 21.3312 30.5664L21.8224 31.9389C21.9073 32.1761 21.7872 32.4384 21.554 32.5248C21.3208 32.6111 21.0628 32.4889 20.9779 32.2517L20.4867 30.8794C20.4018 30.6422 20.522 30.3798 20.7551 30.2933Z" fill="#744394"/>
<path d="M5.56094 4.34424C5.75107 4.18197 6.03461 4.20723 6.19411 4.40064L7.11656 5.51947C7.27606 5.71288 7.25124 6.00112 7.06111 6.16338C6.87099 6.32561 6.58764 6.30038 6.42815 6.10698L5.5055 4.98836C5.346 4.79495 5.37082 4.5065 5.56094 4.34424Z" fill="#744394"/>
<path d="M24.9384 27.8364C25.1285 27.6742 25.412 27.6994 25.5716 27.8928L26.494 29.0114C26.6535 29.2048 26.6289 29.4933 26.4388 29.6556C26.2486 29.8178 25.9651 29.7926 25.8056 29.5992L24.8829 28.4805C24.7234 28.2871 24.7483 27.9987 24.9384 27.8364Z" fill="#744394"/>
<path d="M1.93576 8.73938C2.05983 8.52074 2.33456 8.44584 2.54949 8.57205L3.79312 9.30233C4.00797 9.42858 4.08164 9.70807 3.9576 9.92668C3.83353 10.1453 3.55859 10.2202 3.34366 10.094L2.10024 9.36373C1.88531 9.23751 1.81169 8.95803 1.93576 8.73938Z" fill="#744394"/>
<path d="M28.0422 24.0724C28.1663 23.8537 28.441 23.7788 28.6559 23.9051L29.8996 24.6353C30.1144 24.7616 30.188 25.0411 30.064 25.2597C29.94 25.4783 29.665 25.5532 29.4501 25.427L28.2067 24.6967C27.9918 24.5705 27.9181 24.291 28.0422 24.0724Z" fill="#744394"/>
<path d="M0.00685215 14.1319C0.0498352 13.8833 0.282704 13.7172 0.527094 13.7609L1.94093 14.0137C2.18535 14.0575 2.34868 14.2945 2.3057 14.5432C2.26271 14.7918 2.02983 14.9579 1.78545 14.9143L0.371615 14.6612C0.127223 14.6175 -0.0360837 14.3806 0.00685215 14.1319Z" fill="#744394"/>
<path d="M29.6944 19.457C29.7375 19.2084 29.9705 19.0423 30.2148 19.0861L31.6285 19.3396C31.8729 19.3834 32.0361 19.6206 31.993 19.8692C31.9499 20.1179 31.7168 20.284 31.4724 20.2401L30.0589 19.9864C29.8146 19.9426 29.6513 19.7056 29.6944 19.457Z" fill="#744394"/>
<path d="M1.7853 19.0861C2.02967 19.0423 2.26265 19.2084 2.30574 19.457C2.34879 19.7056 2.18556 19.9426 1.94118 19.9864L0.527346 20.2401C0.282981 20.2839 0.0499925 20.1178 0.00689965 19.8692C-0.0361939 19.6206 0.127056 19.3834 0.371458 19.3396L1.7853 19.0861Z" fill="#744394"/>
<path d="M31.4726 13.7609C31.7169 13.7172 31.95 13.8832 31.993 14.1318C32.036 14.3804 31.8727 14.6175 31.6282 14.6612L30.2148 14.9143C29.9704 14.958 29.7374 14.7918 29.6944 14.5432C29.6514 14.2946 29.8146 14.0575 30.0589 14.0138L31.4726 13.7609Z" fill="#744394"/>
<path d="M3.34317 23.9051C3.55811 23.7789 3.83305 23.8537 3.95711 24.0724C4.08115 24.291 4.00736 24.5705 3.79242 24.6967L2.549 25.427C2.33406 25.5532 2.05931 25.4781 1.93526 25.2595C1.81121 25.0408 1.88482 24.7613 2.09974 24.6351L3.34317 23.9051Z" fill="#744394"/>
<path d="M29.4496 8.57206C29.6645 8.44584 29.9395 8.52073 30.0636 8.73938C30.1876 8.95799 30.1139 9.2375 29.8991 9.36373L28.6554 10.094C28.4405 10.2202 28.1658 10.1453 28.0417 9.92669C27.9176 9.70805 27.9913 9.42856 28.2062 9.30234L29.4496 8.57206Z" fill="#744394"/>
<path d="M6.42814 27.8918C6.58763 27.6984 6.87099 27.6732 7.0611 27.8354C7.25124 27.9976 7.27624 28.2861 7.11675 28.4795L6.1941 29.5984C6.0346 29.7917 5.75106 29.817 5.56093 29.6547C5.37082 29.4925 5.34601 29.204 5.50549 29.0106L6.42814 27.8918Z" fill="#744394"/>
<path d="M25.8058 4.40064C25.9653 4.20725 26.2489 4.18195 26.439 4.34424C26.6291 4.50653 26.6537 4.79497 26.4942 4.98836L25.5716 6.10699C25.412 6.30038 25.1285 6.32567 24.9384 6.16339C24.7483 6.0011 24.7234 5.71266 24.8829 5.51927L25.8058 4.40064Z" fill="#744394"/>
<path d="M10.6681 30.5666C10.753 30.3293 11.011 30.207 11.2442 30.2933C11.4773 30.3797 11.5975 30.642 11.5126 30.8792L11.0216 32.2515C10.9367 32.4887 10.6789 32.611 10.4457 32.5247C10.2125 32.4384 10.0922 32.1759 10.1771 31.9387L10.6681 30.5666Z" fill="#744394"/>
<path d="M20.9786 1.74919C21.0635 1.51195 21.3215 1.38958 21.5547 1.47593C21.7879 1.56231 21.908 1.82458 21.8231 2.06178L21.3322 3.4341C21.2473 3.67132 20.9895 3.79368 20.7563 3.70736C20.5231 3.62101 20.4028 3.35873 20.4877 3.12151L20.9786 1.74919Z" fill="#744394"/>
</svg>
