<svg width="24" height="30" viewBox="0 0 24 30" fill="none" xmlns="http://www.w3.org/2000/svg">
<path d="M23.4268 11.557C23.0993 8.20534 20.2986 5.48352 16.823 5.14121C16.8203 5.14065 16.8165 5.14065 16.8138 5.14007C16.3843 5.09857 16.0132 5.4501 16.0387 5.87137C16.0693 6.36987 15.9985 6.89601 15.7785 7.44406C15.178 8.94183 13.7298 10.0097 12.083 10.0414C9.81149 10.0858 7.95499 8.29985 7.95499 6.09037C7.95499 6.01545 7.95748 5.94169 7.96222 5.86791C7.98816 5.44839 7.61481 5.09857 7.18635 5.14007C7.1836 5.14065 7.18061 5.14065 7.17712 5.14121C3.70154 5.48352 0.900326 8.20534 0.573368 11.557C0.33694 13.9804 1.35797 16.1823 3.0803 17.631C3.60777 18.0747 3.91103 18.7082 3.91028 19.3829C3.91028 19.3871 3.91028 19.3905 3.91028 19.3946C3.91028 23.2631 5.07721 26.7145 6.90279 28.9771C7.68489 29.9463 9.30347 29.3925 9.30347 28.1649C9.30347 26.175 9.30347 23.6152 9.30347 22.0811C9.30347 20.6969 10.3871 19.4896 11.8204 19.4002C13.3913 19.3023 14.6967 20.501 14.6967 21.9929V28.1628C14.6967 29.3903 16.3157 29.9458 17.0973 28.9763C18.9229 26.714 20.0898 23.2626 20.0898 19.3939C20.0898 19.39 20.0898 19.3863 20.0898 19.3824C20.0891 18.7075 20.3924 18.0742 20.9198 17.6305C22.6417 16.1823 23.6632 13.9804 23.4268 11.557Z" fill="white"/>
<path d="M19.5503 19.3946V19.3832C19.5496 18.5509 19.9245 17.7732 20.5679 17.232C22.1646 15.8889 23.1085 13.8514 22.8896 11.6079C22.5871 8.51156 19.9931 5.98403 16.7687 5.66646C16.7681 5.66641 16.7676 5.66628 16.767 5.66622C16.7663 5.66616 16.7654 5.66607 16.7646 5.66599C16.7628 5.66581 16.7602 5.66536 16.7573 5.66503C16.6626 5.658 16.5713 5.74097 16.577 5.84064L16.5824 5.94819C16.6015 6.48788 16.5145 7.05396 16.2806 7.63687C15.6075 9.31575 13.9769 10.5327 12.0937 10.5691C9.51962 10.6194 7.4154 8.59535 7.41538 6.09119C7.41538 6.00474 7.41825 5.91988 7.42366 5.83564C7.42857 5.74228 7.33936 5.65649 7.241 5.66503C7.24183 5.66494 7.24273 5.66491 7.24368 5.6648C7.24335 5.66483 7.24302 5.66476 7.24271 5.6648C7.24205 5.66487 7.24141 5.66496 7.24076 5.66503H7.24027C7.23661 5.66542 7.23412 5.66592 7.23345 5.66599C7.23458 5.66588 7.23633 5.6657 7.23808 5.66551C7.2358 5.66576 7.23354 5.66624 7.23126 5.66646C4.00681 5.98404 1.41238 8.51168 1.11034 11.6079C0.891484 13.8515 1.83494 15.8889 3.43211 17.2324C4.07553 17.7737 4.45041 18.5516 4.44967 19.3837V19.3953C4.44967 23.17 5.59011 26.4996 7.32649 28.6516H7.32624C7.79012 29.2265 8.76392 28.8952 8.76392 28.1657V22.082C8.76392 20.4373 10.0509 18.9832 11.7859 18.875C13.662 18.758 15.236 20.192 15.236 21.9937V28.1636C15.2361 28.8949 16.2112 29.2243 16.6735 28.6509L16.8347 28.4455C18.4271 26.3599 19.4806 23.2594 19.5469 19.7473L19.5503 19.3946ZM16.7607 5.66527C16.7599 5.6652 16.759 5.6651 16.7582 5.66503L16.7587 5.66527C16.7613 5.66556 16.7636 5.66558 16.7653 5.66575C16.7637 5.66559 16.7622 5.66521 16.7607 5.66503V5.66527ZM7.23881 5.66551H7.23808C7.23898 5.66541 7.23986 5.66514 7.24076 5.66503H7.241C7.2402 5.66512 7.23949 5.66544 7.23881 5.66551ZM7.07125 4.62593C7.07725 4.62465 7.08347 4.6244 7.08951 4.62332V4.62284C7.08394 4.62383 7.07775 4.62455 7.07125 4.62593ZM7.12629 4.61713C7.12489 4.61727 7.12292 4.61759 7.12069 4.61784C7.12142 4.61777 7.12215 4.61768 7.12288 4.61761V4.61808C7.12516 4.61782 7.12741 4.61737 7.1297 4.61713C7.12897 4.6172 7.12773 4.61698 7.12629 4.61713ZM8.49431 6.09119C8.49433 8.00596 10.1032 9.55366 12.0721 9.5152H12.0723C13.4826 9.48806 14.7483 8.56918 15.2762 7.2526V7.25236C15.4665 6.7782 15.5262 6.32867 15.5 5.90369V5.90322C15.4567 5.18493 16.064 4.58149 16.7955 4.61142L16.8669 4.61642L16.8686 4.61689C16.8692 4.61695 16.87 4.6168 16.871 4.61689C16.8734 4.61712 16.8777 4.61752 16.8827 4.61808C16.8845 4.61829 16.8865 4.61875 16.8888 4.61903C20.6101 4.99106 23.6117 7.90453 23.9637 11.5077L23.9746 11.6296C24.1832 14.1846 23.0898 16.5015 21.2717 18.0307C20.8603 18.3768 20.6287 18.8654 20.6292 19.3827V19.3946C20.6292 23.3571 19.4355 26.9302 17.5208 29.3031L17.521 29.3033C16.4201 30.6688 14.1571 29.8873 14.1571 28.1636V21.9937C14.1571 20.8117 13.1204 19.848 11.8546 19.9269C10.723 19.9976 9.84285 20.9582 9.84285 22.082V28.1657C9.84285 29.8913 7.57926 30.6677 6.47893 29.304C4.62405 27.0051 3.44598 23.5799 3.37415 19.7658L3.37074 19.3953V19.3832C3.37131 18.8661 3.13962 18.3772 2.72825 18.0312C0.880804 16.4772 -0.21768 14.1108 0.0362829 11.5077C0.388055 7.90208 3.39385 4.987 7.11849 4.61808C7.11909 4.61802 7.11965 4.6179 7.1202 4.61784C7.12366 4.61747 7.12659 4.61705 7.12824 4.61689C7.12893 4.61683 7.12957 4.61693 7.12994 4.61689C7.13098 4.61679 7.13207 4.61652 7.13311 4.61642C7.89059 4.5431 8.54669 5.15592 8.50064 5.9006V5.90179C8.49658 5.96509 8.49431 6.02782 8.49431 6.09119Z" fill="#181443"/>
<path d="M2.69678 11.724C2.69678 11.0315 2.84091 10.3701 3.10205 9.76743C3.21825 9.49946 3.53475 9.37415 3.80907 9.48761C4.08345 9.60109 4.21164 9.91054 4.09549 10.1786C3.8896 10.6538 3.77571 11.1756 3.77571 11.724C3.77565 12.0151 3.53415 12.2511 3.23624 12.2511C2.93833 12.2511 2.69684 12.0151 2.69678 11.724ZM7.95504 6.64941C8.25298 6.64941 8.4945 6.88537 8.4945 7.17646C8.4945 7.46755 8.25298 7.70351 7.95504 7.70351C7.38993 7.70351 6.85228 7.81118 6.36222 8.00569C6.08622 8.11519 5.77148 7.98549 5.65933 7.71588C5.54718 7.4462 5.68019 7.13874 5.95622 7.02917C6.57328 6.78425 7.24857 6.64942 7.95504 6.64941Z" fill="#744394"/>
<path d="M14.939 0.536595C14.7018 0.570585 14.4684 0.614954 14.2389 0.670288C12.763 1.02412 11.2377 1.02412 9.76179 0.670288C9.53284 0.615539 9.29991 0.570585 9.06348 0.537156C8.47067 0.452461 7.94743 0.903685 7.95566 1.48919C7.9614 1.90701 8.0412 2.34266 8.22152 2.79332C8.82206 4.29109 10.2703 5.35896 11.9171 5.39066C14.1888 5.43502 16.0451 3.64911 16.0451 1.43963C16.0451 1.43617 16.0451 1.43271 16.0451 1.42925C16.0433 0.867966 15.5071 0.455336 14.939 0.536595Z" fill="#744394"/>
<path d="M15.5055 1.43127L15.5028 1.39201C15.4778 1.19658 15.274 1.02164 15.0169 1.05842C14.7962 1.09005 14.5799 1.1313 14.3681 1.18238L14.3673 1.18262C12.807 1.55671 11.1933 1.55671 9.63296 1.18262V1.18238C9.42001 1.13148 9.2042 1.09021 8.98609 1.05937L8.98511 1.05913C8.73976 1.02414 8.52042 1.19511 8.49704 1.43389L8.49485 1.48243V1.48267C8.49973 1.83799 8.5673 2.21081 8.72354 2.60148C9.25143 3.91805 10.5172 4.83692 11.9274 4.86409H11.9277C13.8968 4.90253 15.5055 3.35488 15.5055 1.44008V1.43127ZM16.5844 1.44008C16.5844 3.94423 14.4804 5.96846 11.906 5.91818C10.0229 5.88183 8.3923 4.66487 7.71914 2.986L7.71889 2.98576C7.51465 2.4753 7.42275 1.97687 7.41616 1.49671C7.40353 0.589847 8.21687 -0.115071 9.14026 0.0162225L9.1405 0.0159845C9.33141 0.0429783 9.5198 0.0769143 9.70529 0.116873L9.8899 0.158751L9.89015 0.158989C11.2813 0.492511 12.7182 0.492621 14.1094 0.159227C14.3564 0.0996662 14.6069 0.0518517 14.8605 0.0155086H14.8608C15.7227 -0.107706 16.5815 0.516165 16.5844 1.42818V1.44008Z" fill="#744394"/>
</svg>
