<svg width="28" height="28" viewBox="0 0 28 28" fill="none" xmlns="http://www.w3.org/2000/svg">
<path d="M25.8615 7.71312C25.5164 4.03614 22.5621 1.05112 18.8971 0.675909C17.0128 0.482944 15.2487 0.964352 13.8113 1.90384C12.3732 0.963398 10.6098 0.482944 8.72554 0.675909C5.05977 1.05112 2.10626 4.03712 1.76116 7.71312C1.51218 10.3718 2.58885 12.7866 4.40501 14.3762C4.96167 14.8634 5.28076 15.5583 5.28076 16.2978C5.28076 16.3018 5.28076 16.3066 5.28076 16.3106C5.28076 20.5539 6.51151 24.3399 8.43618 26.8212C9.26114 27.8842 10.9685 27.2773 10.9685 25.9305C10.9685 23.7475 10.9685 20.9396 10.9685 19.2566C10.9685 17.7383 12.1116 16.4138 13.623 16.3154C15.2794 16.2082 16.6561 17.5231 16.6561 19.1601V25.9285C16.6561 27.2753 18.3635 27.8842 19.1885 26.8212C21.1131 24.3389 22.3439 20.5539 22.3439 16.3106C22.3439 16.3066 22.3439 16.3018 22.3439 16.2978C22.3429 15.5573 22.663 14.8624 23.2196 14.3762C25.0338 12.7876 26.1115 10.3718 25.8615 7.71312Z" fill="white"/>
<path d="M4.65495 16.2981C4.65492 15.7468 4.41787 15.2259 3.99593 14.8566C2.03491 13.1402 0.868883 10.5278 1.138 7.65364L1.13825 7.6534C1.51209 3.67122 4.70432 0.450466 8.66253 0.0453262C10.547 -0.147647 12.3233 0.285135 13.8111 1.16092C15.2982 0.285872 17.0752 -0.147673 18.9598 0.0453262L19.1447 0.0664169C23.0162 0.551277 26.1161 3.73234 26.4841 7.6534L26.4957 7.78779C26.7177 10.6091 25.5567 13.168 23.6284 14.8566L23.6279 14.8571C23.2061 15.2255 22.9686 15.746 22.9693 16.2974V16.3111C22.9693 20.6669 21.708 24.5982 19.6803 27.2135L19.68 27.2137C18.4833 28.7558 16.0303 27.8703 16.0303 25.9289V19.1605C16.0303 17.8946 14.9636 16.8643 13.6627 16.9485C12.5023 17.0242 11.594 18.0508 11.594 19.2569V25.9309C11.594 27.8441 9.21566 28.7264 8.00109 27.2841L7.94424 27.2137C5.91642 24.5994 4.65497 20.6669 4.65495 16.3111V16.2981ZM5.90621 16.3111C5.90623 20.4416 7.10627 24.0811 8.92768 26.4294C9.38216 27.0151 10.3427 26.6808 10.3427 25.9309V19.2569C10.3427 17.4266 11.7204 15.8041 13.5827 15.6828H13.5829C15.5948 15.5525 17.2815 17.1523 17.2815 19.1605V25.9289C17.2816 26.681 18.2434 27.0134 18.6966 26.4294C20.5181 24.08 21.718 20.4415 21.7181 16.3111V16.2981C21.7171 15.3686 22.1198 14.4997 22.8111 13.896C24.428 12.4798 25.4058 10.3541 25.2565 8.00188L25.2384 7.77356C24.922 4.40288 22.2067 1.65261 18.834 1.30733C17.0955 1.1293 15.4724 1.57295 14.1502 2.43715C13.9438 2.57211 13.6783 2.57216 13.4719 2.43715C12.1491 1.57217 10.527 1.1293 8.78833 1.30733C5.41502 1.6526 2.7003 4.40375 2.38395 7.77356C2.15521 10.2166 3.14247 12.4337 4.81365 13.8965C5.505 14.5015 5.90619 15.3703 5.90621 16.2981V16.3111Z" fill="#181443"/>
<path d="M9.54555 0C11.8378 0 13.9188 0.916512 15.4409 2.4058C15.6895 2.64904 15.6965 3.05039 15.4566 3.3024C15.2167 3.55442 14.8205 3.5616 14.5719 3.31834C13.2753 2.04967 11.503 1.26838 9.54555 1.26838C9.20001 1.26838 8.91992 0.98446 8.91992 0.63419C8.91992 0.283919 9.20001 0 9.54555 0Z" fill="#181443"/>
<path d="M17.1069 6.20312H10.5146V12.8856H17.1069V6.20312Z" fill="#744394"/>
<path d="M17.1072 5.56934C17.4527 5.56938 17.7328 5.85328 17.7328 6.20353V12.8861C17.7327 13.2363 17.4526 13.5202 17.1072 13.5203H10.5148C10.1693 13.5203 9.88921 13.2363 9.88916 12.8861V6.20353C9.88916 5.85326 10.1692 5.56934 10.5148 5.56934H17.1072ZM11.1404 12.2519H16.4815V6.83772H11.1404V12.2519Z" fill="#744394"/>
<path d="M10.5145 8.91016C10.8601 8.91016 11.1402 9.19408 11.1402 9.54435C11.1402 9.89462 10.8601 10.1785 10.5145 10.1785H0.625632C0.280088 10.1785 0 9.89462 0 9.54435C0 9.19408 0.280088 8.91016 0.625632 8.91016H10.5145Z" fill="#744394"/>
<path d="M27.3746 8.91016C27.7201 8.9102 28.0002 9.1941 28.0002 9.54435C28.0002 9.89459 27.7201 10.1785 27.3746 10.1785H17.1071C16.7615 10.1785 16.4814 9.89462 16.4814 9.54435C16.4814 9.19408 16.7615 8.91016 17.1071 8.91016H27.3746Z" fill="#744394"/>
</svg>
