<svg width="60" height="60" viewBox="0 0 60 60" fill="none" xmlns="http://www.w3.org/2000/svg">
<circle cx="30" cy="30" r="29.5" fill="white" stroke="#EFEEF6"/>
<path d="M41.8615 23.7131C41.5164 20.0361 38.5621 17.0511 34.8971 16.6759C33.0128 16.4829 31.2487 16.9644 29.8113 17.9038C28.3732 16.9634 26.6098 16.4829 24.7255 16.6759C21.0598 17.0511 18.1063 20.0371 17.7612 23.7131C17.5122 26.3718 18.5888 28.7866 20.405 30.3762C20.9617 30.8634 21.2808 31.5583 21.2808 32.2978C21.2808 32.3018 21.2808 32.3066 21.2808 32.3106C21.2808 36.5539 22.5115 40.3399 24.4362 42.8212C25.2611 43.8842 26.9685 43.2773 26.9685 41.9305C26.9685 39.7475 26.9685 36.9396 26.9685 35.2566C26.9685 33.7383 28.1116 32.4138 29.623 32.3154C31.2794 32.2082 32.6561 33.5231 32.6561 35.1601V41.9285C32.6561 43.2753 34.3635 43.8842 35.1885 42.8212C37.1131 40.3389 38.3439 36.5539 38.3439 32.3106C38.3439 32.3066 38.3439 32.3018 38.3439 32.2978C38.3429 31.5573 38.663 30.8624 39.2196 30.3762C41.0338 28.7876 42.1115 26.3718 41.8615 23.7131Z" fill="white"/>
<path d="M20.6549 32.2981C20.6549 31.7468 20.4179 31.2259 19.9959 30.8566C18.0349 29.1402 16.8689 26.5278 17.138 23.6536L17.1382 23.6534C17.5121 19.6712 20.7043 16.4505 24.6625 16.0453C26.547 15.8524 28.3233 16.2851 29.8111 17.1609C31.2982 16.2859 33.0752 15.8523 34.9598 16.0453L35.1447 16.0664C39.0162 16.5513 42.1161 19.7323 42.4841 23.6534L42.4957 23.7878C42.7177 26.6091 41.5567 29.168 39.6284 30.8566L39.6279 30.8571C39.2061 31.2255 38.9686 31.746 38.9693 32.2974V32.3111C38.9693 36.6669 37.708 40.5982 35.6803 43.2135L35.68 43.2137C34.4833 44.7558 32.0303 43.8703 32.0303 41.9289V35.1605C32.0303 33.8946 30.9636 32.8643 29.6627 32.9485C28.5023 33.0242 27.594 34.0508 27.594 35.2569V41.9309C27.594 43.8441 25.2157 44.7264 24.0011 43.2841L23.9442 43.2137C21.9164 40.5994 20.655 36.6669 20.6549 32.3111V32.2981ZM21.9062 32.3111C21.9062 36.4416 23.1063 40.0811 24.9277 42.4294C25.3822 43.0151 26.3427 42.6808 26.3427 41.9309V35.2569C26.3427 33.4266 27.7204 31.8041 29.5827 31.6828H29.5829C31.5948 31.5525 33.2815 33.1523 33.2815 35.1605V41.9289C33.2816 42.681 34.2434 43.0134 34.6966 42.4294C36.5181 40.08 37.718 36.4415 37.7181 32.3111V32.2981C37.7171 31.3686 38.1198 30.4997 38.8111 29.896C40.428 28.4798 41.4058 26.3541 41.2565 24.0019L41.2384 23.7736C40.922 20.4029 38.2067 17.6526 34.834 17.3073C33.0955 17.1293 31.4724 17.573 30.1502 18.4371C29.9438 18.5721 29.6783 18.5722 29.4719 18.4371C28.1491 17.5722 26.527 17.1293 24.7883 17.3073C21.415 17.6526 18.7003 20.4037 18.3839 23.7736C18.1552 26.2166 19.1425 28.4337 20.8137 29.8965C21.505 30.5015 21.9062 31.3703 21.9062 32.2981V32.3111Z" fill="#181443"/>
<path d="M25.5456 16C27.8378 16 29.9188 16.9165 31.4409 18.4058C31.6895 18.649 31.6965 19.0504 31.4566 19.3024C31.2167 19.5544 30.8205 19.5616 30.5719 19.3183C29.2753 18.0497 27.503 17.2684 25.5456 17.2684C25.2 17.2684 24.9199 16.9845 24.9199 16.6342C24.9199 16.2839 25.2 16 25.5456 16Z" fill="#181443"/>
<path d="M33.1069 22.2031H26.5146V28.8856H33.1069V22.2031Z" fill="#744394"/>
<path d="M33.1072 21.5693C33.4527 21.5694 33.7328 21.8533 33.7328 22.2035V28.8861C33.7327 29.2363 33.4526 29.5202 33.1072 29.5203H26.5148C26.1693 29.5203 25.8892 29.2363 25.8892 28.8861V22.2035C25.8892 21.8533 26.1692 21.5693 26.5148 21.5693H33.1072ZM27.1404 28.2519H32.4815V22.8377H27.1404V28.2519Z" fill="#744394"/>
<path d="M26.5145 24.9102C26.8601 24.9102 27.1402 25.1941 27.1402 25.5443C27.1402 25.8946 26.8601 26.1785 26.5145 26.1785H16.6256C16.2801 26.1785 16 25.8946 16 25.5443C16 25.1941 16.2801 24.9102 16.6256 24.9102H26.5145Z" fill="#744394"/>
<path d="M43.3746 24.9102C43.7201 24.9102 44.0002 25.1941 44.0002 25.5443C44.0002 25.8946 43.7201 26.1785 43.3746 26.1785H33.1071C32.7615 26.1785 32.4814 25.8946 32.4814 25.5443C32.4814 25.1941 32.7615 24.9102 33.1071 24.9102H43.3746Z" fill="#744394"/>
</svg>
